<?xml version="1.0" encoding="UTF-8"?>
<svg xmlns="http://www.w3.org/2000/svg" version="1.1" viewBox="0 0 288 288">
  <!-- Generator: Adobe Illustrator 30.2.1, SVG Export Plug-In . SVG Version: 2.1.1 Build 1)  -->
  <defs>
    <style>
      .st0, .st1 {
        fill: none;
      }

      .st2, .st3 {
        fill: #89c766;
      }

      .st4 {
        fill: #7da1b1;
      }

      .st5 {
        fill: #1869b0;
      }

      .st6, .st3 {
        mix-blend-mode: multiply;
      }

      .st6, .st7 {
        fill: #cf3f97;
      }

      .st8 {
        isolation: isolate;
      }

      .st9 {
        fill: #678d98;
      }

      .st10 {
        fill: #d9ebf9;
      }

      .st11 {
        fill: #c6e0f5;
      }

      .st12 {
        fill: #ebf6fd;
      }

      .st1 {
        stroke: #010101;
        stroke-linecap: round;
        stroke-linejoin: round;
        stroke-width: 12px;
      }
    </style>
  </defs>
  <g class="st8">
    <g id="icon">
      <g>
        <rect class="st0" x="1354.7" y="2322.1" width="216" height="216"/>
        <rect class="st0" x="1354.7" y="2322.1" width="216" height="216"/>
        <line class="st1" x1="1381.7" y1="2349.1" x2="1462.7" y2="2349.1"/>
        <line class="st1" x1="1381.7" y1="2385.1" x2="1417.7" y2="2385.1"/>
        <line class="st1" x1="1381.7" y1="2430.1" x2="1399.7" y2="2430.1"/>
        <line class="st1" x1="1381.7" y1="2475.1" x2="1417.7" y2="2475.1"/>
        <line class="st1" x1="1381.7" y1="2511.1" x2="1462.7" y2="2511.1"/>
        <path class="st1" d="M1498.7,2412.1l-32.3,32.3c-5,5-13,5-18,0l-11.7-11.7"/>
        <path class="st1" d="M1504.7,2383.2c12.9,11.5,21,28.3,21,47,0,34.8-28.2,63-63,63s-63-28.2-63-63,28.2-63,63-63c16.1,0,30.9,6.1,42,16"/>
        <line class="st1" x1="1507.7" y1="2475.1" x2="1543.7" y2="2511.1"/>
      </g>
      <g>
        <g>
          <path class="st12" d="M39.6,91.7l208.7-6v157.3c0,4-3.2,7.2-7.2,7.2H46.8c-4,0-7.2-3.2-7.2-7.2V91.7Z"/>
          <path class="st10" d="M238.9,85.8v157.3c0,4-3.2,7.2-7.2,7.2h9.4c4,0,7.2-3.2,7.2-7.2V85.8h-9.4Z"/>
        </g>
        <path class="st10" d="M231.9,146.5l-5.2,2.3,5.2,4.7v34.9l-4.5,3.5,4.5,3.5v35.4c0,1.6-1.3,3-3,3h-37.5l-2.8-4.4-4.2,4.4h-36.9l-3.5-4.2-3.5,4.2h-36.9l-3.3-4.4-3.7,4.4h-37.5c-1.6,0-3-1.3-3-3v-35.4l4.3-3.5-4.3-3.5v-34.9l5.1-2.3-5.1-4.7v-35.4c0-1.6,1.3-3,3-3h37.5l2.4,3.5,4.6-3.5h36.9l3.5,4.8,3.5-4.8h36.9l2.9,5.3,4.1-5.3h37.5c1.6,0,3,1.3,3,3v35.4Z"/>
        <path class="st11" d="M231.9,146.5l-5.2,2.3,5.2,4.7v34.9l-4.5,3.5,4.5,3.5v35.4c0,1.6-1.3,3-3,3h-10.3c1.6,0,3-1.3,3-3v-119.7c0-1.6-1.3-3-3-3h10.3c1.6,0,3,1.3,3,3v35.4Z"/>
        <g>
          <path class="st4" d="M221.6,153.5l3.7-3.5-3.7-3.5h-30.1v-38.4h-7v38.4h-36.9v-38.4h-7v125.7h7v-38.4h36.9v38.4h7v-38.4h30.1l3.7-3.5-3.7-3.5h-30.1v-34.9h30.1ZM184.5,188.4h-36.9v-34.9h36.9v34.9Z"/>
          <path class="st4" d="M103.5,108.1v125.7h-7v-38.4h-40.5v-7h40.5v-34.9h-40.5v-7h40.5v-38.4h7Z"/>
        </g>
        <path class="st9" d="M221.6,146.5h10.3v7h-10.3v-7Z"/>
        <path class="st9" d="M221.6,188.4h10.3v7h-10.3v-7Z"/>
        <circle class="st2" cx="121.8" cy="171" r="31.5"/>
        <path class="st3" d="M121.8,139.5c-2.1,0-4.1.2-6.1.6,14.4,2.8,25.3,15.6,25.3,30.9s-10.9,28-25.3,30.9c2,.4,4,.6,6.1.6,17.4,0,31.5-14.1,31.5-31.5s-14.1-31.5-31.5-31.5h0Z"/>
        <path class="st12" d="M118.5,184.4c-.9,0-1.8-.3-2.5-1l-8.9-8.9c-1.4-1.4-1.4-3.6,0-5,1.4-1.4,3.6-1.4,5,0l6.6,6.6,14-12c1.5-1.3,3.7-1.1,5,.4,1.3,1.5,1.1,3.7-.4,5l-16.5,14.1c-.7.6-1.5.8-2.3.8h0Z"/>
        <g>
          <path class="st5" d="M214.1,133.4h-8c-1.9,0-3.5-1.6-3.5-3.5s1.6-3.5,3.5-3.5h8c1.9,0,3.5,1.6,3.5,3.5s-1.6,3.5-3.5,3.5Z"/>
          <path class="st5" d="M170,216.4h-8c-1.9,0-3.5-1.6-3.5-3.5s1.6-3.5,3.5-3.5h8c1.9,0,3.5,1.6,3.5,3.5s-1.6,3.5-3.5,3.5Z"/>
        </g>
        <path class="st7" d="M253,91.7H35c-4.2,0-7.5-3.4-7.5-7.5v-21.1c0-4.2,3.4-7.5,7.5-7.5h217.9c4.2,0,7.5,3.4,7.5,7.5v21.1c0,4.2-3.4,7.5-7.5,7.5Z"/>
        <path class="st6" d="M253,55.6h-11.8c4.2,0,7.5,3.4,7.5,7.5v21.1c0,4.2-3.4,7.5-7.5,7.5h11.8c4.2,0,7.5-3.4,7.5-7.5v-21.1c0-4.2-3.4-7.5-7.5-7.5Z"/>
        <g>
          <g>
            <path class="st5" d="M65.1,73.4c-3.5,0-6.3-2.8-6.3-6.3v-23c0-3.5,2.8-6.3,6.3-6.3s6.3,2.8,6.3,6.3v23c0,3.5-2.8,6.3-6.3,6.3Z"/>
            <path class="st5" d="M97.3,73.4c-3.5,0-6.3-2.8-6.3-6.3v-23c0-3.5,2.8-6.3,6.3-6.3s6.3,2.8,6.3,6.3v23c0,3.5-2.8,6.3-6.3,6.3Z"/>
          </g>
          <g>
            <path class="st5" d="M190.7,73.4c-3.5,0-6.3-2.8-6.3-6.3v-23c0-3.5,2.8-6.3,6.3-6.3s6.3,2.8,6.3,6.3v23c0,3.5-2.8,6.3-6.3,6.3Z"/>
            <path class="st5" d="M222.9,73.4c-3.5,0-6.3-2.8-6.3-6.3v-23c0-3.5,2.8-6.3,6.3-6.3s6.3,2.8,6.3,6.3v23c0,3.5-2.8,6.3-6.3,6.3Z"/>
          </g>
        </g>
      </g>
    </g>
  </g>
</svg>