<?xml version="1.0" encoding="UTF-8"?>
<svg xmlns="http://www.w3.org/2000/svg" version="1.1" viewBox="0 0 288 288">
  <!-- Generator: Adobe Illustrator 30.2.1, SVG Export Plug-In . SVG Version: 2.1.1 Build 1)  -->
  <defs>
    <style>
      .st0, .st1 {
        fill: none;
      }

      .st2, .st3 {
        fill: #89c766;
      }

      .st4 {
        fill: #1869b0;
      }

      .st5, .st3 {
        opacity: .2;
      }

      .st5, .st3, .st6, .st7 {
        mix-blend-mode: multiply;
      }

      .st6, .st8 {
        fill: #cf3f97;
      }

      .st9 {
        isolation: isolate;
      }

      .st10 {
        fill: #fff;
      }

      .st11 {
        fill: #f3fafe;
      }

      .st12 {
        fill: #fccec0;
      }

      .st13 {
        fill: #e0f3fb;
      }

      .st14 {
        fill: #f9ae9e;
      }

      .st1 {
        stroke: #010101;
        stroke-linecap: round;
        stroke-linejoin: round;
        stroke-width: 12px;
      }
    </style>
  </defs>
  <g class="st9">
    <g id="icon">
      <g>
        <rect class="st0" x="1354.7" y="2322.1" width="216" height="216"/>
        <rect class="st0" x="1354.7" y="2322.1" width="216" height="216"/>
        <line class="st1" x1="1381.7" y1="2349.1" x2="1462.7" y2="2349.1"/>
        <line class="st1" x1="1381.7" y1="2385.1" x2="1417.7" y2="2385.1"/>
        <line class="st1" x1="1381.7" y1="2430.1" x2="1399.7" y2="2430.1"/>
        <line class="st1" x1="1381.7" y1="2475.1" x2="1417.7" y2="2475.1"/>
        <line class="st1" x1="1381.7" y1="2511.1" x2="1462.7" y2="2511.1"/>
        <path class="st1" d="M1498.7,2412.1l-32.3,32.3c-5,5-13,5-18,0l-11.7-11.7"/>
        <path class="st1" d="M1504.7,2383.2c12.9,11.5,21,28.3,21,47,0,34.8-28.2,63-63,63s-63-28.2-63-63,28.2-63,63-63c16.1,0,30.9,6.1,42,16"/>
        <line class="st1" x1="1507.7" y1="2475.1" x2="1543.7" y2="2511.1"/>
      </g>
      <g>
        <path class="st11" d="M147.8,188.8c0-22.1,18-40.2,40.2-40.2s.3,0,.5,0h.6s0-17.2,0-17.2l-18.7-18.7c-4.1-4.1-6.4-9.6-6.4-15.4s2.3-11.3,6.4-15.4c.7-.7,1.6-1.1,2.6-1.1s1.9.4,2.6,1.1l22.3,22.3v-49.6c0-8.1-6.6-14.7-14.7-14.7h-87.5c-8.1,0-14.7,6.6-14.7,14.7v35.9h1.9c5.5,0,10.1,4.5,10.1,10.1v5.4c0,5.5-4.5,10.1-10.1,10.1v.8c5.5,0,10.1,4.5,10.1,10.1v5.4c0,5.5-4.5,10.1-10.1,10.1v.8c5.5,0,10.1,4.5,10.1,10.1v5.4c0,5.5-4.5,10.1-10.1,10.1v.8c5.5,0,10.1,4.5,10.1,10.1v5.4c0,5.5-4.5,10.1-10.1,10.1h-1.9v28.2h86.3c-11.7-7-19.6-19.8-19.6-34.5Z"/>
        <g>
          <path class="st13" d="M180.3,54.5v31.5l17.6,17.6v-49.1c0-8.1-6.6-14.7-14.7-14.7h-17.6c8.1,0,14.7,6.6,14.7,14.7Z"/>
          <path class="st13" d="M188.6,148.6v-17.1l-8.3-8.3v26.1c2.5-.5,5-.7,7.7-.7s.5,0,.8,0c0,0,0,0-.1,0h0Z"/>
        </g>
        <path class="st8" d="M188,228.9c-7.8,0-15.1-2.2-21.2-6.1h-85.6v10.7c0,8.1,6.6,14.7,14.7,14.7h87.5c8.1,0,14.7-6.6,14.7-14.7v-5.8c-3.2.8-6.5,1.2-9.9,1.2Z"/>
        <path class="st6" d="M188,228.9c-2.6,0-5.2-.3-7.7-.7v5.3c0,8.1-6.6,14.7-14.7,14.7h17.6c8.1,0,14.7-6.6,14.7-14.7v-5.8c-3.2.8-6.5,1.2-9.9,1.2h0Z"/>
        <g>
          <path class="st4" d="M83.1,90.4c.4,0,.8,0,1.2,0v-36c0-6.4,5.2-11.5,11.5-11.5h87.5c6.4,0,11.5,5.2,11.5,11.5v46.5l6.3,6.3v-52.8c0-9.8-8-17.8-17.8-17.8h-87.5c-9.8,0-17.8,8-17.8,17.8v35.9h5.1Z"/>
          <path class="st4" d="M194.8,228.3v5.1c0,6.4-5.2,11.5-11.5,11.5h-87.5c-6.4,0-11.5-5.2-11.5-11.5v-38.5c-.4,0-.8,0-1.2,0h-5.1v38.5c0,9.8,8,17.8,17.8,17.8h87.5c9.8,0,17.8-8,17.8-17.8v-6.8c-2,.7-4.1,1.2-6.3,1.6Z"/>
        </g>
        <path class="st12" d="M93.5,105.9v-5.4c0-5.8-4.7-10.5-10.5-10.5h-13.2c-5.8,0-10.5,4.7-10.5,10.5v5.4c0,5.8,4.7,10.5,10.5,10.5-5.8,0-10.5,4.7-10.5,10.5v5.4c0,5.8,4.7,10.5,10.5,10.5-5.8,0-10.5,4.7-10.5,10.5v5.4c0,5.8,4.7,10.5,10.5,10.5-5.8,0-10.5,4.7-10.5,10.5v5.4c0,5.8,4.7,10.5,10.5,10.5h13.2c5.8,0,10.5-4.7,10.5-10.5v-5.4c0-5.8-4.7-10.5-10.5-10.5,5.8,0,10.5-4.7,10.5-10.5v-5.4c0-5.8-4.7-10.5-10.5-10.5,5.8,0,10.5-4.7,10.5-10.5v-5.4c0-5.8-4.7-10.5-10.5-10.5,5.8,0,10.5-4.7,10.5-10.5Z"/>
        <g>
          <path class="st14" d="M83.1,90h-13.1c5.8,0,10.5,4.7,10.5,10.5v5.4c0,5.8-4.7,10.5-10.5,10.5h13.1c5.8,0,10.5-4.7,10.5-10.5v-5.4c0-5.8-4.7-10.5-10.5-10.5Z"/>
          <path class="st14" d="M83.1,116.3h-13.1c5.8,0,10.5,4.7,10.5,10.5v5.4c0,5.8-4.7,10.5-10.5,10.5h13.1c5.8,0,10.5-4.7,10.5-10.5v-5.4c0-5.8-4.7-10.5-10.5-10.5Z"/>
          <path class="st14" d="M83.1,142.7h-13.1c5.8,0,10.5,4.7,10.5,10.5v5.4c0,5.8-4.7,10.5-10.5,10.5h13.1c5.8,0,10.5-4.7,10.5-10.5v-5.4c0-5.8-4.7-10.5-10.5-10.5h0Z"/>
          <path class="st14" d="M83.1,169.1h-13.1c5.8,0,10.5,4.7,10.5,10.5v5.4c0,5.8-4.7,10.5-10.5,10.5h13.1c5.8,0,10.5-4.7,10.5-10.5v-5.4c0-5.8-4.7-10.5-10.5-10.5Z"/>
        </g>
        <path class="st4" d="M165.4,59.1h-51.7c-1.7,0-3.1-1.4-3.1-3.1s1.4-3.1,3.1-3.1h51.7c1.7,0,3.1,1.4,3.1,3.1s-1.4,3.1-3.1,3.1Z"/>
        <path class="st2" d="M164,97.3c0-5.8,2.2-11.2,6.3-15.3h-62.2c-1.2,0-2.1.9-2.1,2.1v16.5c0,1.2.9,2.1,2.1,2.1h56.6c-.4-1.7-.7-3.5-.7-5.4h0Z"/>
        <path class="st3" d="M153.6,102.6h11c-.4-1.7-.7-3.5-.7-5.4,0-5.8,2.2-11.2,6.3-15.3h-16.6c1.2,0,2.1.9,2.1,2.1v16.5c0,1.2-.9,2.1-2.1,2.1Z"/>
        <path class="st12" d="M188.6,131.6v17.1c15.3.2,28.6,9.1,35.1,21.9v-33.1c0-5.1-2-10.1-5.7-13.7l-42.2-42.2c-1.6-1.6-4.3-1.6-5.9,0-8.7,8.7-8.7,22.7,0,31.4l18.6,18.6Z"/>
        <path class="st14" d="M210.6,141.8v13.9c5.5,3.8,10.1,8.9,13.1,14.9v-33.1c0-5.1-2-10.1-5.7-13.7l-42.2-42.2c-1.6-1.6-4.3-1.6-5.9,0s-3.6,4.4-4.7,6.9l39.6,39.6c3.6,3.6,5.7,8.6,5.7,13.7h0Z"/>
        <g>
          <circle class="st2" cx="188" cy="188.8" r="40.6"/>
          <g class="st7">
            <path class="st2" d="M188,148.2c-3,0-5.9.3-8.8,1,18.2,4,31.8,20.2,31.8,39.6s-13.6,35.6-31.8,39.6c2.8.6,5.8,1,8.8,1,22.4,0,40.6-18.2,40.6-40.6s-18.2-40.6-40.6-40.6h0Z"/>
          </g>
          <path class="st10" d="M183.8,205.6c-.8,0-1.6-.3-2.2-.9l-15.6-15.6c-1.2-1.2-1.2-3.2,0-4.4,1.2-1.2,3.2-1.2,4.4,0l13.4,13.4,22-22c1.2-1.2,3.2-1.2,4.4,0s1.2,3.2,0,4.4l-24.2,24.2c-.6.6-1.4.9-2.2.9h0Z"/>
        </g>
        <path class="st2" d="M171,136.2h-63c-1.2,0-2.1-.9-2.1-2.1v-16.5c0-1.2.9-2.1,2.1-2.1h63c1.2,0,2.1.9,2.1,2.1v16.5c0,1.2-.9,2.1-2.1,2.1Z"/>
        <g class="st5">
          <path class="st2" d="M171,115.5h-17.4c1.2,0,2.1.9,2.1,2.1v16.5c0,1.2-.9,2.1-2.1,2.1h17.4c1.2,0,2.1-.9,2.1-2.1v-16.5c0-1.2-.9-2.1-2.1-2.1Z"/>
        </g>
        <rect class="st4" x="105.9" y="149.3" width="32.1" height="20.5" rx="2.1" ry="2.1"/>
      </g>
    </g>
  </g>
</svg>