<?xml version="1.0" encoding="UTF-8"?>
<svg xmlns="http://www.w3.org/2000/svg" version="1.1" viewBox="0 0 288 288">
  <!-- Generator: Adobe Illustrator 30.2.1, SVG Export Plug-In . SVG Version: 2.1.1 Build 1)  -->
  <defs>
    <style>
      .st0, .st1 {
        fill: none;
      }

      .st2, .st3 {
        fill: #89c766;
      }

      .st4 {
        fill: #fff0ae;
      }

      .st5 {
        fill: #3ec6ef;
      }

      .st6 {
        fill: #a89ca7;
      }

      .st7 {
        fill: #f04a58;
      }

      .st8 {
        fill: #fee178;
      }

      .st9, .st3 {
        mix-blend-mode: multiply;
      }

      .st9, .st10 {
        fill: #cf3f97;
      }

      .st11 {
        isolation: isolate;
      }

      .st12 {
        fill: #ee3540;
      }

      .st13 {
        fill: #fff;
      }

      .st14 {
        fill: #71cfef;
      }

      .st15 {
        fill: #fec446;
      }

      .st16 {
        fill: #dae1ea;
        opacity: .2;
      }

      .st17 {
        fill: #e0f3fb;
      }

      .st1 {
        stroke: #010101;
        stroke-linecap: round;
        stroke-linejoin: round;
        stroke-width: 12px;
      }

      .st18 {
        fill: #ffd15c;
      }

      .st19 {
        fill: #c9ebfa;
      }
    </style>
  </defs>
  <g class="st11">
    <g id="icon">
      <g>
        <rect class="st0" x="1354.7" y="2322.1" width="216" height="216"/>
        <rect class="st0" x="1354.7" y="2322.1" width="216" height="216"/>
        <line class="st1" x1="1381.7" y1="2349.1" x2="1462.7" y2="2349.1"/>
        <line class="st1" x1="1381.7" y1="2385.1" x2="1417.7" y2="2385.1"/>
        <line class="st1" x1="1381.7" y1="2430.1" x2="1399.7" y2="2430.1"/>
        <line class="st1" x1="1381.7" y1="2475.1" x2="1417.7" y2="2475.1"/>
        <line class="st1" x1="1381.7" y1="2511.1" x2="1462.7" y2="2511.1"/>
        <path class="st1" d="M1498.7,2412.1l-32.3,32.3c-5,5-13,5-18,0l-11.7-11.7"/>
        <path class="st1" d="M1504.7,2383.2c12.9,11.5,21,28.3,21,47,0,34.8-28.2,63-63,63s-63-28.2-63-63,28.2-63,63-63c16.1,0,30.9,6.1,42,16"/>
        <line class="st1" x1="1507.7" y1="2475.1" x2="1543.7" y2="2511.1"/>
      </g>
      <g>
        <g>
          <path class="st2" d="M222,224.4c0,7.8-8.4,14.4-24.2,19.2-14.4,4.4-33.5,6.8-53.8,6.8s-39.4-2.4-53.8-6.8c-15.9-4.8-24.2-11.5-24.2-19.2s8.4-14.4,24.2-19.2c4.5-1.4,9.4-2.5,14.6-3.5,11.7-2.2,25.2-3.3,39.2-3.3s27.5,1.2,39.2,3.3c5.2,1,10.1,2.1,14.6,3.5,15.9,4.8,24.2,11.5,24.2,19.2h0Z"/>
          <path class="st3" d="M183.2,201.7l-29,29c-2.7,2.7-6.3,4.2-10.2,4.2s-7.4-1.5-10.2-4.2l-29-29c11.7-2.2,25.2-3.3,39.2-3.3s27.5,1.2,39.2,3.3h0Z"/>
          <path class="st10" d="M231.9,112c0,18.3-5.6,35.8-16.1,50.7-10.2,14.3-24.2,25.2-40.5,31.4l-28.9,28.9c-.6.6-1.5,1-2.3,1s-1.7-.3-2.3-1l-28.9-28.9c-16.4-6.2-30.3-17.1-40.5-31.4-10.5-14.9-16.1-32.4-16.1-50.7,0-46.1,35.7-83.9,80.9-87.5,2.3-.2,4.6-.3,7-.3,48.4,0,87.9,39.4,87.9,87.8h0Z"/>
          <path class="st9" d="M231.9,112c0,18.3-5.6,35.8-16.1,50.7-10.2,14.3-24.2,25.2-40.5,31.4l-28.9,28.9,14.9-28.9c16.4-6.2,30.3-17.1,40.5-31.4,10.5-14.9,16.1-32.4,16.1-50.7,0-46.1-35.7-83.9-80.9-87.5,2.3-.2,4.6-.3,7-.3,48.4,0,87.9,39.4,87.9,87.8h0Z"/>
          <path class="st13" d="M217.9,112c0,40.7-33.1,73.8-73.9,73.8s-4.4-.1-6.6-.3c-37.6-3.4-67.3-35.1-67.3-73.5s29.6-70.2,67.3-73.5c2.2-.2,4.4-.3,6.6-.3,40.7,0,73.9,33.1,73.9,73.8Z"/>
          <path class="st16" d="M217.9,112c0,40.7-33.1,73.8-73.9,73.8s-4.4-.1-6.6-.3c37.6-3.4,67.3-35.1,67.3-73.5s-29.6-70.2-67.3-73.5c2.2-.2,4.4-.3,6.6-.3,40.7,0,73.9,33.1,73.9,73.8Z"/>
        </g>
        <g>
          <path class="st7" d="M160.3,48.9h-14.8c0,.2.1.3.1.5v9.7h14.7c.6,0,1.1-.5,1.1-1.1v-8.1c0-.6-.5-1.1-1.1-1.1Z"/>
          <path class="st12" d="M160.3,48.9h-4.5v4.2c0,.6-.5,1.1-1.1,1.1h-9.1v4.9h14.7c.6,0,1.1-.5,1.1-1.1v-8c0-.6-.5-1.1-1.1-1.1Z"/>
          <path class="st6" d="M144.2,69.1c.6,0,1.1.1,1.6.4v-20c0-.9-.7-1.6-1.6-1.6s-1.6.7-1.6,1.6v20c.5-.3,1.1-.4,1.6-.4Z"/>
          <g>
            <g>
              <path class="st8" d="M93.2,112.9v40.9c0,1.2,1,2.3,2.3,2.3h28.9v-43.2h-31.2Z"/>
              <path class="st4" d="M93.2,112.9v40.9c0,1.2,1,2.3,2.3,2.3h28.9v-43.2h-31.2Z"/>
              <path class="st8" d="M117.4,147c0,1.2-1,2.2-2.2,2.2h-22v4.7c0,1.2,1,2.3,2.3,2.3h28.9v-43.2h-6.9v34Z"/>
              <path class="st8" d="M164,112.9v43.2h28.9c1.2,0,2.3-1,2.3-2.3v-40.9h-31.2Z"/>
              <path class="st8" d="M164,112.9v43.2h28.9c1.2,0,2.3-1,2.3-2.3v-40.9h-31.2Z"/>
              <path class="st18" d="M188.2,147c0,1.2-1,2.2-2.2,2.2h-22v6.9h28.9c1.2,0,2.3-1,2.3-2.3v-40.9h-6.9v34h0Z"/>
            </g>
            <g>
              <path class="st14" d="M164,113.1h34.5c.8,0,1.4-.9,1-1.6l-3.7-7.5c-.4-.8-1.2-1.3-2-1.3h-29.8v10.4Z"/>
              <path class="st14" d="M164,113.1h34.5c.8,0,1.4-.9,1-1.6l-3.7-7.5c-.4-.8-1.2-1.3-2-1.3h-29.8v10.4Z"/>
              <path class="st5" d="M199.5,111.5l-3.7-7.5c-.4-.8-1.2-1.3-2-1.3h-5.5v3.6c0,1.2-1,2.2-2.2,2.2h-22v4.6h34.5c.8,0,1.4-.9,1-1.6h0Z"/>
              <path class="st14" d="M124.4,102.7h-29.8c-.9,0-1.6.5-2,1.3l-3.7,7.5c-.4.8.2,1.6,1,1.6h34.5v-10.4Z"/>
              <path class="st14" d="M124.4,102.7h-29.8c-.9,0-1.6.5-2,1.3l-3.7,7.5c-.4.8.2,1.6,1,1.6h34.5v-10.4Z"/>
              <path class="st5" d="M117.4,102.7v3.6c0,1.2-1,2.2-2.2,2.2h-24.8l-1.5,3c-.4.8.2,1.6,1,1.6h34.5v-10.4h-7Z"/>
            </g>
            <path class="st18" d="M144.2,76.4l-20,12.7v67h40.1v-67l-20-12.7Z"/>
            <path class="st18" d="M144.2,76.4l-20,12.7v67h12.1l.2-.3v-15.5c0-4.1,3.3-7.5,7.5-7.5h.5c4.1,0,7.5,3.3,7.5,7.5v15.5l.2.3h12.1v-67l-20-12.7Z"/>
            <g>
              <path class="st15" d="M157.3,84.7v62.2c0,1.2-1,2.2-2.2,2.2h-3v6.9h12.1v-67l-6.9-4.4Z"/>
              <path class="st15" d="M124.2,149.2h12.1v6.9h-12.1v-6.9Z"/>
            </g>
            <path class="st17" d="M136.3,156.1v-15.8c0-4.2,3.4-7.7,7.7-7.7h.5c4.2,0,7.7,3.4,7.7,7.7v15.8h-15.8Z"/>
            <path class="st17" d="M136.3,156.1v-15.8c0-4.2,3.4-7.7,7.7-7.7h.5c4.2,0,7.7,3.4,7.7,7.7v15.8h-15.8Z"/>
            <path class="st19" d="M136.3,149.2h15.8v6.9h-15.8v-6.9Z"/>
            <g>
              <path class="st13" d="M140.5,106.3h-5.8c-.6,0-1.1-.5-1.1-1.1v-5.8c0-.6.5-1.1,1.1-1.1h5.8c.6,0,1.1.5,1.1,1.1v5.8c0,.6-.5,1.1-1.1,1.1h0Z"/>
              <path class="st13" d="M153.7,106.3h-5.8c-.6,0-1.1-.5-1.1-1.1v-5.8c0-.6.5-1.1,1.1-1.1h5.8c.6,0,1.1.5,1.1,1.1v5.8c0,.6-.5,1.1-1.1,1.1Z"/>
            </g>
            <g>
              <path class="st13" d="M140.5,122.1h-5.8c-.6,0-1.1-.5-1.1-1.1v-5.8c0-.6.5-1.1,1.1-1.1h5.8c.6,0,1.1.5,1.1,1.1v5.8c0,.6-.5,1.1-1.1,1.1h0Z"/>
              <path class="st13" d="M111.6,128.9h-5.8c-.6,0-1.1-.5-1.1-1.1v-5.8c0-.6.5-1.1,1.1-1.1h5.8c.6,0,1.1.5,1.1,1.1v5.8c0,.6-.5,1.1-1.1,1.1Z"/>
              <path class="st13" d="M111.6,144.8h-5.8c-.6,0-1.1-.5-1.1-1.1v-5.8c0-.6.5-1.1,1.1-1.1h5.8c.6,0,1.1.5,1.1,1.1v5.8c0,.6-.5,1.1-1.1,1.1Z"/>
              <path class="st13" d="M182.6,128.9h-5.8c-.6,0-1.1-.5-1.1-1.1v-5.8c0-.6.5-1.1,1.1-1.1h5.8c.6,0,1.1.5,1.1,1.1v5.8c0,.6-.5,1.1-1.1,1.1Z"/>
              <path class="st13" d="M182.6,144.8h-5.8c-.6,0-1.1-.5-1.1-1.1v-5.8c0-.6.5-1.1,1.1-1.1h5.8c.6,0,1.1.5,1.1,1.1v5.8c0,.6-.5,1.1-1.1,1.1Z"/>
              <path class="st13" d="M153.7,122.1h-5.8c-.6,0-1.1-.5-1.1-1.1v-5.8c0-.6.5-1.1,1.1-1.1h5.8c.6,0,1.1.5,1.1,1.1v5.8c0,.6-.5,1.1-1.1,1.1Z"/>
            </g>
            <path class="st14" d="M168.3,92l-24.1-15.3-24.1,15.3c-1.1.7-2.4.4-3.1-.7l-1.4-2.2c-.7-1.1-.4-2.4.7-3.1l26-16.5c1.2-.7,2.7-.7,3.8,0l26,16.5c1.1.7,1.4,2.1.7,3.1l-1.4,2.2c-.7,1.1-2.1,1.4-3.1.7Z"/>
            <path class="st5" d="M157.3,85l11,7c1.1.7,2.4.4,3.1-.7l1.4-2.2c.7-1.1.4-2.4-.7-3.1l-14.8-9.4v8.5Z"/>
          </g>
        </g>
      </g>
    </g>
  </g>
</svg>