<?xml version="1.0" encoding="UTF-8"?>
<svg xmlns="http://www.w3.org/2000/svg" version="1.1" viewBox="0 0 288 288">
  <!-- Generator: Adobe Illustrator 30.2.1, SVG Export Plug-In . SVG Version: 2.1.1 Build 1)  -->
  <defs>
    <style>
      .st0, .st1, .st2 {
        fill: none;
      }

      .st3 {
        fill: #fddcce;
      }

      .st4 {
        fill: #fbcbbf;
      }

      .st5, .st6 {
        fill: #89c766;
      }

      .st7 {
        fill: #1869b0;
      }

      .st8 {
        isolation: isolate;
      }

      .st9 {
        fill: #edc830;
      }

      .st6 {
        mix-blend-mode: multiply;
      }

      .st10 {
        fill: #f2f4f6;
      }

      .st11 {
        fill: #d0e2e7;
      }

      .st1 {
        stroke-width: 16px;
      }

      .st1, .st2 {
        stroke: #010101;
        stroke-linecap: round;
        stroke-linejoin: round;
      }

      .st2 {
        stroke-width: 12px;
      }

      .st12 {
        fill: #f7ee56;
      }
    </style>
  </defs>
  <g class="st8">
    <g id="icon">
      <g>
        <rect class="st0" x="1354.7" y="2322.1" width="216" height="216"/>
        <rect class="st0" x="1354.7" y="2322.1" width="216" height="216"/>
        <line class="st2" x1="1381.7" y1="2349.1" x2="1462.7" y2="2349.1"/>
        <line class="st2" x1="1381.7" y1="2385.1" x2="1417.7" y2="2385.1"/>
        <line class="st2" x1="1381.7" y1="2430.1" x2="1399.7" y2="2430.1"/>
        <line class="st2" x1="1381.7" y1="2475.1" x2="1417.7" y2="2475.1"/>
        <line class="st2" x1="1381.7" y1="2511.1" x2="1462.7" y2="2511.1"/>
        <path class="st2" d="M1498.7,2412.1l-32.3,32.3c-5,5-13,5-18,0l-11.7-11.7"/>
        <path class="st2" d="M1504.7,2383.2c12.9,11.5,21,28.3,21,47,0,34.8-28.2,63-63,63s-63-28.2-63-63,28.2-63,63-63c16.1,0,30.9,6.1,42,16"/>
        <line class="st2" x1="1507.7" y1="2475.1" x2="1543.7" y2="2511.1"/>
      </g>
      <path class="st1" d="M559,126.6"/>
      <g>
        <path class="st5" d="M252,205.9c-.8,7.2-6.6,12.9-13.9,13.4-.6,0-1.2,0-1.8.1-4.4.3-7.9,4-7.9,8.4v16.8c0,5.6-6.5,8.8-10.9,5.4-8.2-6.2-19.1-15.5-25.8-25.1-1.6-2.3-4.2-3.6-7-3.6-20.6.1-41.1-.6-61.7-2-5.7-.4-10.6-4-12.8-9.1-.6-1.3-1-2.8-1.1-4.3-3-27.8-3-55.7,0-83.5.8-7.2,6.7-12.8,13.9-13.3,30.6-2.2,61.3-2.6,91.9-1.3,7.7.3,15.4.7,23.1,1.3,7.2.5,13.1,6.1,13.9,13.3,3,27.8,3,55.6,0,83.5h0Z"/>
        <path class="st6" d="M117,121.7c-3.1,28.5-3.1,57,0,85.5.2,1.5.6,3,1.2,4.4,1.5,3.5,4.3,6.4,7.8,7.9-1,0-1.9-.1-2.9-.2-5.7-.4-10.6-4-12.8-9.1-.6-1.3-1-2.8-1.1-4.3-3-27.8-3-55.7,0-83.5.8-7.2,6.6-12.8,13.9-13.3,1.4,0,2.8-.2,4.2-.3-5.5,1.9-9.6,6.8-10.3,12.9h0Z"/>
        <g>
          <path class="st3" d="M163.7,195.5c0,4.5,6,8.2,10.5,8.2h35.1c3.6,0,6.6-3,6.6-6.6s-.7-3.5-1.9-4.7-2.9-1.9-4.7-1.9h2.4c3.6,0,6.6-3,6.6-6.6s-.7-3.5-1.9-4.7c-1.2-1.2-2.8-1.9-4.7-1.9h2.4c3.6,0,6.5-2.9,6.6-6.5,0-3.7-3-6.7-6.8-6.7h-2.2c3.6,0,6.6-3,6.6-6.6s-.7-3.5-1.9-4.7c-1.2-1.2-2.8-1.9-4.7-1.9h-18.6s0,0,0,0l7.3-15.4c2.1-4.4.2-9.6-4.2-11.7-1.2-.6-2.5-.8-3.7-.8-3.3,0-6.4,1.9-7.9,5l-3.1,6.6c-1.8,3.9-4.8,7.2-8.5,9.4-2.5,1.4-4.5,3.6-5.7,6.4-.9,1.9-1.2,3.9-1.2,5.9l-2.2,39.3Z"/>
          <g>
            <path class="st4" d="M198.7,125.6c-.3,0-.6,0-.9,0-3.3,0-6.4,1.9-7.9,5l-3.1,6.6c-1.8,3.9-4.8,7.2-8.5,9.4-2.5,1.4-11.3,3.7-11.6,20.4,0,1.3-.5,2.5-.8,3.7v-14.5c0-2,.3-4,1.2-5.9,1.2-2.8,3.3-5,5.7-6.4,3.7-2.2,6.6-5.5,8.5-9.4l3.1-6.6c1.5-3.2,4.6-5,7.9-5s2.5.3,3.7.8c1.1.5,2,1.2,2.7,2h0Z"/>
            <path class="st4" d="M215.9,197.1c0,3.7-3,6.6-6.6,6.6h-36c-3.8,0-7.3-1.8-9.5-4.9h45.6c2.8,0,5.2-1.7,6.1-4.2,0,0,0,0,0,0,0,0,0,0,0,0,.3.8.5,1.6.5,2.4Z"/>
            <path class="st4" d="M217.8,181.4c.3.8.5,1.6.5,2.4,0,3.7-3,6.6-6.6,6.6h-2.5c-1.3,0-2.4-1.1-2.4-2.4s1.1-2.4,2.4-2.4h2.5c2.8,0,5.2-1.7,6.1-4.2h0Z"/>
            <path class="st4" d="M220.2,168.2c.3.8.5,1.6.5,2.4,0,3.7-3,6.6-6.6,6.6h-2.5c-1.3,0-2.4-1.1-2.4-2.4s1.1-2.4,2.4-2.4h2.5c2.8,0,5.2-1.7,6.1-4.2h0Z"/>
            <path class="st4" d="M217.8,155c.3.8.5,1.6.5,2.4,0,3.7-3,6.6-6.6,6.6h-2.5c-1.3,0-2.4-1.1-2.4-2.4s1.1-2.4,2.4-2.4h2.5c2.8,0,5.2-1.7,6.1-4.2h0Z"/>
          </g>
          <path class="st10" d="M145.3,156.2v41.2c0,2.9,2.3,5.2,5.2,5.2h10.2c2.9,0,5.2-2.3,5.2-5.2v-41.2c0-2.9-2.3-5.2-5.2-5.2h-10.2c-2.9,0-5.2,2.3-5.2,5.2h0Z"/>
          <path class="st11" d="M145.3,184.4v13c0,2.9,2.3,5.2,5.2,5.2h10.2c2.9,0,5.2-2.3,5.2-5.2v-13c0,2.9-2.3,5.2-5.2,5.2h-10.2c-2.9,0-5.2-2.3-5.2-5.2Z"/>
        </g>
        <path class="st12" d="M31.8,126.4c.8,6.9,6.4,12.4,13.4,12.9.6,0,1.2,0,1.7.1,4.3.3,7.6,3.8,7.6,8.1v16.1c0,5.4,6.2,8.5,10.5,5.2,7.9-6,18.3-14.9,24.8-24.2,1.5-2.2,4-3.5,6.7-3.5,19.8.1,39.6-.5,59.3-1.9,5.5-.4,10.2-3.9,12.3-8.7.6-1.3.9-2.7,1.1-4.1,2.9-26.8,2.9-53.5,0-80.3-.8-6.9-6.4-12.3-13.4-12.8-29.5-2.1-58.9-2.5-88.4-1.2-7.4.3-14.8.7-22.2,1.2-7,.5-12.6,5.9-13.4,12.8-2.9,26.8-2.9,53.5,0,80.3h0Z"/>
        <path class="st9" d="M39.3,45.5c-3,27.4-3,54.8,0,82.2.2,1.5.5,2.9,1.1,4.2,1.5,3.4,4.1,6.1,7.5,7.6-.9,0-1.8-.1-2.8-.2-5.5-.4-10.2-3.8-12.3-8.7-.6-1.3-.9-2.7-1.1-4.1-2.9-26.8-2.9-53.5,0-80.3.8-6.9,6.4-12.3,13.4-12.8,1.4,0,2.7-.2,4.1-.3-5.3,1.8-9.3,6.6-9.9,12.4Z"/>
        <g>
          <path class="st7" d="M124.2,84.3c4.2,0,7.5-5.6,7.5-12.5s-3.4-12.5-7.5-12.5-7.5,5.6-7.5,12.5,3.4,12.5,7.5,12.5h0Z"/>
          <path class="st7" d="M76.7,84.3c4.2,0,7.5-5.6,7.5-12.5s-3.4-12.5-7.5-12.5-7.5,5.6-7.5,12.5,3.4,12.5,7.5,12.5Z"/>
          <path class="st7" d="M126.5,93.5c-1.7-.7-3.7,0-4.4,1.8-3.7,8.7-12.1,14.3-21.5,14.3s-17.9-5.6-21.5-14.3c-.7-1.7-2.7-2.5-4.4-1.8-1.7.7-2.5,2.7-1.8,4.4,4.7,11.2,15.6,18.4,27.8,18.4s23.1-7.2,27.8-18.4c.7-1.7,0-3.7-1.8-4.4h0Z"/>
        </g>
      </g>
    </g>
  </g>
</svg>