<?xml version="1.0" encoding="UTF-8"?>
<svg id="icon" xmlns="http://www.w3.org/2000/svg" version="1.1" viewBox="0 0 288 288">
  <!-- Generator: Adobe Illustrator 30.2.1, SVG Export Plug-In . SVG Version: 2.1.1 Build 1)  -->
  <defs>
    <style>
      .st0, .st1 {
        fill: none;
      }

      .st2 {
        fill: #da92bf;
      }

      .st3 {
        fill: #d377b0;
      }

      .st4 {
        fill: #f7ee65;
      }

      .st5 {
        fill: #ffd067;
      }

      .st6 {
        fill: #1869b0;
        opacity: .4;
      }

      .st7 {
        fill: #86c2ea;
      }

      .st8 {
        fill: #cf3f97;
      }

      .st1 {
        stroke: #010101;
        stroke-linecap: round;
        stroke-linejoin: round;
        stroke-width: 12px;
      }
    </style>
  </defs>
  <g>
    <rect class="st0" x="1354.7" y="2322.1" width="216" height="216"/>
    <rect class="st0" x="1354.7" y="2322.1" width="216" height="216"/>
    <line class="st1" x1="1381.7" y1="2349.1" x2="1462.7" y2="2349.1"/>
    <line class="st1" x1="1381.7" y1="2385.1" x2="1417.7" y2="2385.1"/>
    <line class="st1" x1="1381.7" y1="2430.1" x2="1399.7" y2="2430.1"/>
    <line class="st1" x1="1381.7" y1="2475.1" x2="1417.7" y2="2475.1"/>
    <line class="st1" x1="1381.7" y1="2511.1" x2="1462.7" y2="2511.1"/>
    <path class="st1" d="M1498.7,2412.1l-32.3,32.3c-5,5-13,5-18,0l-11.7-11.7"/>
    <path class="st1" d="M1504.7,2383.2c12.9,11.5,21,28.3,21,47,0,34.8-28.2,63-63,63s-63-28.2-63-63,28.2-63,63-63c16.1,0,30.9,6.1,42,16"/>
    <line class="st1" x1="1507.7" y1="2475.1" x2="1543.7" y2="2511.1"/>
  </g>
  <g>
    <path class="st2" d="M233,88.5l-85.4-49.3c-2.2-1.3-4.9-1.3-7.1,0l-85.4,49.3c-2.2,1.3-3.6,3.6-3.6,6.2v98.6c0,2.5,1.4,4.9,3.6,6.2l85.4,49.3c1.1.6,2.3,1,3.6,1s2.5-.3,3.6-1l85.4-49.3c2.2-1.3,3.6-3.6,3.6-6.2v-98.6c0-2.5-1.4-4.9-3.6-6.2h0ZM151.1,57.7l64.1,37-64.1,37V57.7ZM136.9,57.7v74l-64.1-37,64.1-37ZM65.7,107l64.1,37-64.1,37v-74ZM136.9,156.3v74l-64.1-37,64.1-37ZM151.1,230.3v-74l64.1,37-64.1,37ZM222.3,181l-64.1-37,64.1-37v74Z"/>
    <g>
      <path class="st3" d="M230.2,101.1l-7.9,5.9v74l7.9,5.9v-85.9Z"/>
      <path class="st8" d="M151.1,51.8v5.9l64.1,37-53.8,31v5.9l64.1-37-74.4-42.9Z"/>
      <path class="st8" d="M161.4,156.3v5.9l53.8,31-64.1,37v5.9l74.4-42.9-64.1-37Z"/>
      <path class="st8" d="M65.3,199.5c-2.2-1.3-5.9-3.6-5.9-6.2v-98.6c0-2.5,3.7-4.9,5.9-6.2l83.8-48.4-1.6-.9c-2.2-1.3-4.9-1.3-7.1,0l-85.4,49.3c-2.2,1.3-3.6,3.6-3.6,6.2v98.6c0,2.5,1.4,4.9,3.6,6.2l85.4,49.3c1.1.6,2.3,1,3.6,1s2.5-.3,3.6-1l1.6-.9-83.8-48.4Z"/>
      <path class="st8" d="M144.8,57.7l-7.9,5.9v62.1l7.9,5.9V57.7Z"/>
      <path class="st8" d="M144.8,156.3l-7.9,5.9v62.1l7.9,5.9v-74Z"/>
      <path class="st8" d="M65.7,186.9l74.4-42.9-74.4-42.9v5.9l64.1,37-64.1,37v5.9Z"/>
    </g>
    <g>
      <circle class="st4" cx="144" cy="45.4" r="19.2"/>
      <path class="st5" d="M151.6,63c-2.3,1-4.9,1.6-7.6,1.6-10.6,0-19.2-8.6-19.2-19.2s8.6-19.2,19.2-19.2,5.3.6,7.6,1.6c-6.8,2.9-11.6,9.7-11.6,17.6s4.8,14.7,11.6,17.6Z"/>
    </g>
    <g>
      <circle class="st4" cx="144" cy="242.6" r="19.2"/>
      <path class="st5" d="M151.6,260.2c-2.3,1-4.9,1.6-7.6,1.6-10.6,0-19.2-8.6-19.2-19.2s8.6-19.2,19.2-19.2,5.3.6,7.6,1.6c-6.8,2.9-11.6,9.7-11.6,17.6s4.8,14.7,11.6,17.6Z"/>
    </g>
    <g>
      <circle class="st4" cx="229.4" cy="193.3" r="19.2"/>
      <path class="st5" d="M237,210.9c-2.3,1-4.9,1.6-7.6,1.6-10.6,0-19.2-8.6-19.2-19.2s8.6-19.2,19.2-19.2,5.3.6,7.6,1.6c-6.8,2.9-11.6,9.7-11.6,17.6s4.8,14.7,11.6,17.6Z"/>
    </g>
    <g>
      <circle class="st4" cx="58.6" cy="193.3" r="19.2"/>
      <path class="st5" d="M66.2,210.9c-2.3,1-4.9,1.6-7.6,1.6-10.6,0-19.2-8.6-19.2-19.2s8.6-19.2,19.2-19.2,5.3.6,7.6,1.6c-6.8,2.9-11.6,9.7-11.6,17.6s4.8,14.7,11.6,17.6Z"/>
    </g>
    <g>
      <circle class="st4" cx="229.4" cy="94.7" r="19.2"/>
      <path class="st5" d="M237,112.3c-2.3,1-4.9,1.6-7.6,1.6-10.6,0-19.2-8.6-19.2-19.2s8.6-19.2,19.2-19.2,5.3.6,7.6,1.6c-6.8,2.9-11.6,9.7-11.6,17.6s4.8,14.7,11.6,17.6Z"/>
    </g>
    <g>
      <circle class="st4" cx="58.6" cy="94.7" r="19.2"/>
      <path class="st5" d="M66.2,112.3c-2.3,1-4.9,1.6-7.6,1.6-10.6,0-19.2-8.6-19.2-19.2s8.6-19.2,19.2-19.2,5.3.6,7.6,1.6c-6.8,2.9-11.6,9.7-11.6,17.6s4.8,14.7,11.6,17.6Z"/>
    </g>
    <path class="st7" d="M177.4,124.2h-7.7v-.3c0-15.2-12.3-27.6-27.6-27.6s-27.6,12.3-27.6,27.6v14h-10.4c-10.4,0-18.8,8.4-18.8,18.8s8.4,18.8,18.8,18.8h73.2c14.2,0,25.7-11.5,25.7-25.7,0-14.2-11.5-25.7-25.7-25.7h0Z"/>
    <path class="st6" d="M149.4,97.3c-4.7,1.3-8.8,3.8-12.2,7.1-5,5-8.1,11.9-8.1,19.5v14h-10.4c-10.4,0-18.8,8.4-18.8,18.8s2.1,9.9,5.5,13.3c3.4,3.4,8.1,5.5,13.3,5.5h-14.7c-5.2,0-9.9-2.1-13.3-5.5-3.4-3.4-5.5-8.1-5.5-13.3,0-10.4,8.4-18.8,18.8-18.8h10.4v-14c0-7.6,3.1-14.5,8.1-19.5,5-5,11.9-8.1,19.5-8.1,2.5,0,5,.3,7.3,1Z"/>
  </g>
</svg>